<?xml version="1.0" encoding="utf-8"?>
<!-- Generator: Adobe Illustrator 23.0.5, SVG Export Plug-In . SVG Version: 6.00 Build 0)  -->
<svg version="1.1" id="Layer_1" xmlns="http://www.w3.org/2000/svg" xmlns:xlink="http://www.w3.org/1999/xlink" x="0px" y="0px"
	 viewBox="0 0 330 66" style="enable-background:new 0 0 330 66;" xml:space="preserve">
<style type="text/css">
	.st0{filter:url(#filter-2);}
	.st1{fill-rule:evenodd;clip-rule:evenodd;}
	.st2{fill-rule:evenodd;clip-rule:evenodd;fill:#FFFFFF;}
	.st3{fill-rule:evenodd;clip-rule:evenodd;fill:#002F9C;}
	.st4{fill:#FFFFFF;}
	.st5{fill:#DA0000;}
	.st6{fill:#239F40;}
</style>
<filter  filterUnits="objectBoundingBox" height="153.1%" id="filter-2" width="110.4%" x="-5.2%" y="-20.3%">
	<feOffset  dx="0" dy="4" in="SourceAlpha" result="shadowOffsetOuter1"></feOffset>
	<feGaussianBlur  in="shadowOffsetOuter1" result="shadowBlurOuter1" stdDeviation="5"></feGaussianBlur>
	<feColorMatrix  in="shadowBlurOuter1" type="matrix" values="0 0 0 0 0   0 0 0 0 0   0 0 0 0 0  0 0 0 0.08 0"></feColorMatrix>
</filter>
<title>registration plate</title>
<desc>Created with Sketch.</desc>
<g id="Style-Guide">
	<g id="Style-Guide---Icons" transform="translate(-821.000000, -2004.000000)">
		<g id="registration-plate" transform="translate(830.000000, 2009.000000)">
			<g id="Rectangle-Copy-48">
				<g class="st0">
					<path id="path-1_1_" class="st1" d="M-6-4h324c1.1,0,2,0.9,2,2v60c0,1.1-0.9,2-2,2H-6c-1.1,0-2-0.9-2-2V-2C-8-3.1-7.1-4-6-4z"
						/>
				</g>
				<g>
					<path class="st2" d="M-6-4h324c1.1,0,2,0.9,2,2v60c0,1.1-0.9,2-2,2H-6c-1.1,0-2-0.9-2-2V-2C-8-3.1-7.1-4-6-4z"/>
				</g>
			</g>
			<path id="Rectangle-Copy" class="st3" d="M-6-5h26v66H-6c-1.7,0-3-1.3-3-3V-2C-9-3.7-7.7-5-6-5z"/>
			<path id="Shape" d="M-6,61c-1.7,0-3-1.3-3-3V-2c0-1.7,1.3-3,3-3h324c1.7,0,3,1.3,3,3v60c0,1.7-1.3,3-3,3H-6z M243-4H-6
				c-1.1,0-2,0.9-2,2v60c0,1.1,0.9,2,2,2h249V-4z M318-4h-74v64h74c1.1,0,2-0.9,2-2V-2C320-3.1,319.1-4,318-4z"/>
			<path id="I.R.IRAN" class="st4" d="M-3.8,40.8H-5V34h1.2V40.8z M-1.7,39.6c0.2,0,0.4,0.1,0.5,0.2S-1,40-1,40.2
				c0,0.2-0.1,0.3-0.2,0.4c-0.1,0.1-0.3,0.2-0.5,0.2c-0.2,0-0.4-0.1-0.5-0.2c-0.1-0.1-0.2-0.3-0.2-0.4s0.1-0.3,0.2-0.4
				S-1.9,39.6-1.7,39.6z M3,38.1H1.7v2.6H0.5V34h2.5c0.8,0,1.4,0.2,1.9,0.5c0.4,0.3,0.7,0.9,0.7,1.5c0,0.4-0.1,0.8-0.3,1.1
				c-0.2,0.3-0.5,0.5-0.9,0.7l1.6,2.8v0.1H4.4L3,38.1z M1.7,37.2h1.3c0.4,0,0.7-0.1,1-0.3c0.2-0.2,0.3-0.5,0.3-0.8
				c0-0.4-0.1-0.6-0.3-0.8S3.4,35,3,34.9H1.7V37.2z M7.2,39.6c0.2,0,0.4,0.1,0.5,0.2c0.1,0.1,0.2,0.3,0.2,0.4c0,0.2-0.1,0.3-0.2,0.4
				c-0.1,0.1-0.3,0.2-0.5,0.2c-0.2,0-0.4-0.1-0.5-0.2c-0.1-0.1-0.2-0.3-0.2-0.4s0.1-0.3,0.2-0.4S7,39.6,7.2,39.6z M-3.8,55H-5v-6.8
				h1.2V55z M0.3,52.4h-1.4V55h-1.2v-6.8h2.5c0.8,0,1.4,0.2,1.9,0.5c0.4,0.3,0.7,0.9,0.7,1.5c0,0.4-0.1,0.8-0.3,1.1
				c-0.2,0.3-0.5,0.5-0.9,0.7L3,54.9V55H1.7L0.3,52.4z M-1.1,51.5h1.3c0.4,0,0.7-0.1,1-0.3c0.2-0.2,0.3-0.5,0.3-0.8
				c0-0.4-0.1-0.6-0.3-0.8c-0.2-0.2-0.5-0.3-1-0.3h-1.3V51.5z M7.8,53.4H5.1L4.5,55H3.2l2.7-6.8H7L9.6,55H8.4L7.8,53.4z M5.4,52.5h2
				l-1-2.8L5.4,52.5z M16,55h-1.2l-3.1-4.8V55h-1.2v-6.8h1.2l3.1,4.8v-4.8H16V55z"/>
			<g id="Group-31" transform="translate(3.000000, 11.000000)">
				<rect id="Rectangle" x="-9" y="-5" class="st4" width="24" height="15"/>
				<rect x="-9" y="5" class="st5" width="24" height="5"/>
				<path class="st5" d="M3,1.3c0.1,0.1,0.1,0.1,0.2,0.2v1L3.1,3.8c0.2-0.1,0.4-0.3,0.5-0.5C4,2.7,3.9,2,3.6,1.4
					c0.6,0.5,0.7,1.3,0.3,2C3.8,3.6,3.5,3.9,3.3,4c0.2,0.1,0.4,0.1,0.7,0.1c-0.3,0.1-0.5,0.1-0.8,0l0,0.1L3,4.4L2.9,4.2l0-0.1
					c-0.3,0.1-0.5,0-0.8,0c0.2,0,0.5,0,0.7-0.1C2.5,3.9,2.2,3.6,2.1,3.4c-0.4-0.6-0.2-1.5,0.3-2C2.1,2,2,2.7,2.4,3.2
					c0.1,0.2,0.3,0.4,0.5,0.5L2.8,2.5v-1C2.9,1.5,2.9,1.4,3,1.3L3,1.3z M3.7,1.4c0.5,0.1,0.9,0.6,1,1.1s-0.2,1-0.6,1.3
					C4.3,3.4,4.5,3,4.4,2.5C4.3,2.1,4.1,1.7,3.7,1.4z M2.3,1.4C1.9,1.7,1.7,2.1,1.6,2.5C1.5,3,1.7,3.4,1.9,3.8
					C1.5,3.5,1.2,3,1.3,2.5S1.8,1.5,2.3,1.4z M2.7,1.3C2.6,1.2,2.5,1.1,2.6,1c0,0.1,0.1,0.2,0.2,0.2c0.1,0,0.2,0,0.2-0.1l0,0
					c0.1,0.1,0.1,0.1,0.2,0.1c0.1,0,0.2-0.1,0.2-0.2c0,0.1,0,0.2-0.1,0.3c-0.1,0-0.2,0-0.3,0l0,0C2.9,1.3,2.8,1.4,2.7,1.3z"/>
				<polygon class="st6" points="-9,-5 15,-5 15,0 -9,0 				"/>
				<path class="st4" d="M-6.5,5.8v0.1h-0.1V5.8H-6.5z M-4.3,5.8v0.1h-0.1V5.8H-4.3z M-2.1,5.8v0.1h-0.1V5.8H-2.1z M0.1,5.8v0.1H0
					V5.8H0.1z M2.3,5.8v0.1H2.2V5.8H2.3z M4.5,5.8v0.1H4.4V5.8H4.5z M6.7,5.8v0.1H6.6V5.8H6.7z M8.9,5.8v0.1H8.8V5.8H8.9z M-8.7,5.8
					v0.1h-0.1V5.8H-8.7z M11.1,5.8v0.1h-0.1V5.8H11.1z M13.2,5.8v0.1h-0.1V5.8H13.2z M10.2,5.3v0.4l0.1,0l0-0.4h0.1v0.4l0.1,0V5.3
					h0.1v0.5h-0.5l0-0.2l-0.3,0v0.1H10v0.1H9.6V5.5l0.4,0l0-0.2H10.2z M12.4,5.3v0.4l0.1,0l0-0.4h0.1l0,0.4l0.1,0V5.3h0.1v0.5h-0.5
					l0-0.2l-0.3,0v0.1h0.2v0.1h-0.3V5.5l0.4,0l0-0.2H12.4z M-6.3,5.5v0.2h0.3V5.7h-0.2V5.5h0.3v0.3h-0.5V5.7h-0.3v0.2h-0.1V5.5H-6.3
					z M-1.9,5.5v0.2h0.3V5.7h-0.2V5.5h0.3v0.3H-2V5.7h-0.3v0.2h-0.1V5.5H-1.9z M2.5,5.5v0.2h0.3V5.7H2.6V5.5h0.3v0.3H2.4V5.7H2.1
					v0.2H2V5.5H2.5z M14.6,5.3v0.4l0.1,0V5.3h0.1l0,0.4l0.1,0V5.3H15v0.5h-0.5l0-0.2l-0.3,0v0.1h0.2v0.1H14V5.5l0.4,0l0-0.2H14.6z
					 M6.9,5.5v0.2h0.3V5.7H7V5.5h0.3v0.3H6.8V5.7H6.5v0.2H6.3V5.5H6.9z M0.3,5.5v0.2h0.3V5.7H0.4V5.5h0.3v0.3H0.2V5.7h-0.3v0.2h-0.1
					V5.5H0.3z M-4.1,5.5v0.2h0.3V5.7H-4V5.5h0.3v0.3h-0.5V5.7h-0.3v0.2h-0.1V5.5H-4.1z M11.3,5.5v0.2h0.3V5.7h-0.2V5.5h0.3v0.3h-0.5
					V5.7h-0.3v0.2h-0.1V5.5H11.3z M-0.8,5.3v0.4l0.1,0l0-0.4h0.1l0,0.4l0.1,0V5.3h0.1v0.5h-0.5l0-0.2l-0.3,0v0.1H-1v0.1h-0.3V5.5
					l0.4,0l0-0.2H-0.8z M5.8,5.3v0.4l0.1,0l0-0.4H6l0,0.4l0.1,0V5.3h0.1v0.5H5.7l0-0.2l-0.3,0v0.1h0.2v0.1H5.2V5.5l0.4,0l0-0.2H5.8z
					 M-8.5,5.5v0.2h0.3V5.7h-0.2V5.5H-8v0.3h-0.5V5.7h-0.3v0.2H-9V5.5H-8.5z M8,5.3v0.4l0.1,0l0-0.4h0.1l0,0.4l0.1,0V5.3h0.1v0.5
					H7.9l0-0.2l-0.3,0v0.1h0.2v0.1H7.4V5.5l0.4,0l0-0.2H8z M9.1,5.5v0.2h0.3V5.7H9.2V5.5h0.3v0.3H9V5.7H8.6v0.2H8.5V5.5H9.1z
					 M13.5,5.5v0.2h0.3V5.7h-0.2V5.5h0.3v0.3h-0.5V5.7H13v0.2h-0.1V5.5H13.5z M-7.4,5.3v0.4l0.1,0l0-0.4h0.1l0,0.4l0.1,0V5.3h0.1
					v0.5h-0.5l0-0.2l-0.3,0v0.1h0.2v0.1h-0.3V5.5l0.4,0l0-0.2H-7.4z M3.6,5.3v0.4l0.1,0l0-0.4h0.1l0,0.4l0.1,0V5.3H4v0.5H3.5l0-0.2
					l-0.3,0v0.1h0.2v0.1H3.1V5.5l0.4,0l0-0.2H3.6z M1.4,5.3v0.4l0.1,0l0-0.4h0.1l0,0.4l0.1,0V5.3h0.1v0.5H1.3l0-0.2L1,5.7v0.1h0.2
					v0.1H0.9V5.5l0.4,0l0-0.2H1.4z M-3,5.3v0.4l0.1,0l0-0.4h0.1l0,0.4l0.1,0V5.3h0.1v0.5h-0.5l0-0.2l-0.3,0v0.1h0.2v0.1h-0.3V5.5
					l0.4,0l0-0.2H-3z M-5.2,5.3v0.4l0.1,0l0-0.4h0.1l0,0.4l0.1,0V5.3h0.1v0.5h-0.5l0-0.2l-0.3,0v0.1h0.2v0.1h-0.3V5.5l0.4,0l0-0.2
					H-5.2z M4.7,5.5v0.2H5V5.7H4.8V5.5h0.3v0.3H4.6V5.7H4.3v0.2H4.2V5.5H4.7z M14.3,5.3v0.1h-1.4V5.3H14.3z M10,5.3v0.1H8.5V5.3H10z
					 M12.2,5.3v0.1h-1.4V5.3H12.2z M-1,5.3v0.1h-1.4V5.3H-1z M7.8,5.3v0.1H6.3V5.3H7.8z M-7.6,5.3v0.1H-9V5.3H-7.6z M-5.4,5.3v0.1
					h-1.4V5.3H-5.4z M-3.2,5.3v0.1h-1.4V5.3H-3.2z M3.4,5.3v0.1H2V5.3H3.4z M5.6,5.3v0.1H4.2V5.3H5.6z M1.2,5.3v0.1h-1.4V5.3H1.2z
					 M-2.5,5v0.2h-1V5H-2.5z M-1.4,5v0.2h-1V5H-1.4z M6.2,5v0.2h-1V5H6.2z M7.3,5v0.2h-1V5H7.3z M8.4,5v0.2h-1V5H8.4z M1.8,5v0.2h-1
					V5H1.8z M10.6,5v0.2h-1V5H10.6z M11.7,5v0.2h-1V5H11.7z M12.8,5v0.2h-1V5H12.8z M13.9,5v0.2h-1V5H13.9z M15,5v0.2h-1V5H15z
					 M-0.3,5v0.2h-1V5H-0.3z M-4.7,5v0.2h-1V5H-4.7z M-5.8,5v0.2h-1V5H-5.8z M-6.9,5v0.2h-1V5H-6.9z M4,5v0.2h-1V5H4z M-3.6,5v0.2
					h-1V5H-3.6z M5.1,5v0.2h-1V5H5.1z M0.8,5v0.2h-1V5H0.8z M-8,5v0.2h-1V5H-8z M2.9,5v0.2H2V5H2.9z M9.5,5v0.2h-1V5H9.5z"/>
				<path class="st4" d="M4-0.3v0.2h-1v-0.2H4z M1.8-0.3v0.2h-1v-0.2H1.8z M-4.7-0.3v0.2h-1v-0.2H-4.7z M6.2-0.3v0.2h-1v-0.2H6.2z
					 M7.3-0.3v0.2h-1v-0.2H7.3z M-5.8-0.3v0.2h-1v-0.2H-5.8z M0.8-0.3v0.2h-1v-0.2H0.8z M13.9-0.3v0.2h-1v-0.2H13.9z M15-0.3v0.2h-1
					v-0.2H15z M-1.4-0.3v0.2h-1v-0.2H-1.4z M-2.5-0.3v0.2h-1v-0.2H-2.5z M-3.6-0.3v0.2h-1v-0.2H-3.6z M5.1-0.3v0.2h-1v-0.2H5.1z
					 M2.9-0.3v0.2H2v-0.2H2.9z M8.4-0.3v0.2h-1v-0.2H8.4z M12.8-0.3v0.2h-1v-0.2H12.8z M9.5-0.3v0.2h-1v-0.2H9.5z M11.7-0.3v0.2h-1
					v-0.2H11.7z M-0.3-0.3v0.2h-1v-0.2H-0.3z M10.6-0.3v0.2h-1v-0.2H10.6z M-6.9-0.3v0.2h-1v-0.2H-6.9z M-8-0.3v0.2h-1v-0.2H-8z
					 M2.3-0.6v0.1H2.2v-0.1H2.3z M4.5-0.6v0.1H4.4v-0.1H4.5z M-4.3-0.6v0.1h-0.1v-0.1H-4.3z M-6.5-0.6v0.1h-0.1v-0.1H-6.5z M-7.4-1
					v0.4l0.1,0l0-0.4h0.1l0,0.4l0.1,0V-1h0.1v0.5h-0.5l0-0.2l-0.3,0v0.1h0.2v0.1h-0.3v-0.3l0.4,0l0-0.2H-7.4z M12.4-1v0.4l0.1,0
					l0-0.4h0.1l0,0.4l0.1,0V-1h0.1v0.5h-0.5l0-0.2l-0.3,0v0.1h0.2v0.1h-0.3v-0.3l0.4,0l0-0.2H12.4z M-3-1v0.4l0.1,0l0-0.4h0.1l0,0.4
					l0.1,0V-1h0.1v0.5h-0.5l0-0.2l-0.3,0v0.1h0.2v0.1h-0.3v-0.3l0.4,0l0-0.2H-3z M10.2-1v0.4l0.1,0l0-0.4h0.1v0.4l0.1,0V-1h0.1v0.5
					h-0.5l0-0.2l-0.3,0v0.1H10v0.1H9.6v-0.3l0.4,0l0-0.2H10.2z M0.3-0.8v0.2h0.3v-0.1H0.4v-0.1h0.3v0.3H0.2v-0.2h-0.3v0.2h-0.1v-0.3
					H0.3z M-5.2-1v0.4l0.1,0l0-0.4h0.1l0,0.4l0.1,0V-1h0.1v0.5h-0.5l0-0.2l-0.3,0v0.1h0.2v0.1h-0.3v-0.3l0.4,0l0-0.2H-5.2z M9.1-0.8
					v0.2h0.3v-0.1H9.2v-0.1h0.3v0.3H9v-0.2H8.6v0.2H8.5v-0.3H9.1z M6.7-0.6v0.1H6.6v-0.1H6.7z M-2.1-0.6v0.1h-0.1v-0.1H-2.1z
					 M11.1-0.6v0.1h-0.1v-0.1H11.1z M-1.9-0.8v0.2h0.3v-0.1h-0.2v-0.1h0.3v0.3H-2v-0.2h-0.3v0.2h-0.1v-0.3H-1.9z M14.6-1v0.4l0.1,0
					V-1h0.1l0,0.4l0.1,0V-1H15v0.5h-0.5l0-0.2l-0.3,0v0.1h0.2v0.1H14v-0.3l0.4,0l0-0.2H14.6z M6.9-0.8v0.2h0.3v-0.1H7v-0.1h0.3v0.3
					H6.8v-0.2H6.5v0.2H6.3v-0.3H6.9z M2.5-0.8v0.2h0.3v-0.1H2.6v-0.1h0.3v0.3H2.4v-0.2H2.1v0.2H2v-0.3H2.5z M8-1v0.4l0.1,0l0-0.4
					h0.1l0,0.4l0.1,0V-1h0.1v0.5H7.9l0-0.2l-0.3,0v0.1h0.2v0.1H7.4v-0.3l0.4,0l0-0.2H8z M-0.8-1v0.4l0.1,0l0-0.4h0.1l0,0.4l0.1,0V-1
					h0.1v0.5h-0.5l0-0.2l-0.3,0v0.1H-1v0.1h-0.3v-0.3l0.4,0l0-0.2H-0.8z M13.5-0.8v0.2h0.3v-0.1h-0.2v-0.1h0.3v0.3h-0.5v-0.2H13v0.2
					h-0.1v-0.3H13.5z M1.4-1v0.4l0.1,0l0-0.4h0.1l0,0.4l0.1,0V-1h0.1v0.5H1.3l0-0.2L1-0.7v0.1h0.2v0.1H0.9v-0.3l0.4,0l0-0.2H1.4z
					 M8.9-0.6v0.1H8.8v-0.1H8.9z M-6.3-0.8v0.2h0.3v-0.1h-0.2v-0.1h0.3v0.3h-0.5v-0.2h-0.3v0.2h-0.1v-0.3H-6.3z M13.2-0.6v0.1h-0.1
					v-0.1H13.2z M11.3-0.8v0.2h0.3v-0.1h-0.2v-0.1h0.3v0.3h-0.5v-0.2h-0.3v0.2h-0.1v-0.3H11.3z M0.1-0.6v0.1H0v-0.1H0.1z M5.8-1v0.4
					l0.1,0l0-0.4H6l0,0.4l0.1,0V-1h0.1v0.5H5.7l0-0.2l-0.3,0v0.1h0.2v0.1H5.2v-0.3l0.4,0l0-0.2H5.8z M3.6-1v0.4l0.1,0l0-0.4h0.1
					l0,0.4l0.1,0V-1H4v0.5H3.5l0-0.2l-0.3,0v0.1h0.2v0.1H3.1v-0.3l0.4,0l0-0.2H3.6z M4.7-0.8v0.2H5v-0.1H4.8v-0.1h0.3v0.3H4.6v-0.2
					H4.3v0.2H4.2v-0.3H4.7z M-4.1-0.8v0.2h0.3v-0.1H-4v-0.1h0.3v0.3h-0.5v-0.2h-0.3v0.2h-0.1v-0.3H-4.1z M-8.7-0.6v0.1h-0.1v-0.1
					H-8.7z M-8.5-0.8v0.2h0.3v-0.1h-0.2v-0.1H-8v0.3h-0.5v-0.2h-0.3v0.2H-9v-0.3H-8.5z M-3.2-1v0.1h-1.4V-1H-3.2z M-7.6-1v0.1H-9V-1
					H-7.6z M3.4-1v0.1H2V-1H3.4z M5.6-1v0.1H4.2V-1H5.6z M-5.4-1v0.1h-1.4V-1H-5.4z M10-1v0.1H8.5V-1H10z M-1-1v0.1h-1.4V-1H-1z
					 M14.3-1v0.1h-1.4V-1H14.3z M1.2-1v0.1h-1.4V-1H1.2z M12.2-1v0.1h-1.4V-1H12.2z M7.8-1v0.1H6.3V-1H7.8z"/>
			</g>
		</g>
	</g>
</g>
</svg>
