<svg xmlns="http://www.w3.org/2000/svg" width="24" height="24" viewBox="0 0 24 24">
    <g fill="none" fill-rule="evenodd">
        <g fill="#FF5722" fill-rule="nonzero">
            <path d="M16.478 22H7.062c-1.084 0-2-.833-2.084-2L4.562 8.5l1.25-.083.416 11.5c0 .416.417.75.834.75h9.416a.835.835 0 0 0 .834-.834l.583-11.416 1.25.083-.583 11.5c-.084 1.167-1 2-2.084 2zM8.145 6.333v-2.75C8.145 2.75 8.812 2 9.728 2h3.834c.833 0 1.583.667 1.583 1.583v2.75h-1.25v-2.75a.358.358 0 0 0-.333-.333H9.728a.358.358 0 0 0-.333.333v2.75h-1.25z"/>
            <path d="M2.83 5.297l17.584-.08.006 1.25-17.584.08z"/>
        </g>
    </g>
</svg>
