<svg xmlns="http://www.w3.org/2000/svg" width="24" height="24" viewBox="0 0 24 24">
    <g fill="none" fill-rule="evenodd">
        <g fill="#FF5722" fill-rule="nonzero">
            <path d="M19.167 5.982c-.084-.417-.25-.75-.584-1l-3.5-2.667c-.666-.5-1.666-.417-2.166.333L2 17.148v4.834h5.667l8.5-11.334.75-1 1.916-2.583c.334-.25.417-.667.334-1.083zm-1.25.333L16 8.898l-2.917-2.166-.75 1 2.917 2.166-8.167 10.834H3.25v-3.167L13.917 3.398c.083-.083.25-.166.416-.083l3.5 2.667c.084.083.084.166.084.166.083 0 .083.084 0 .167zM12.25 20.732h9.417v1.25H12.25z"/>
        </g>
    </g>
</svg>
