<svg xmlns="http://www.w3.org/2000/svg" width="24" height="24" viewBox="0 0 24 24">
    <g fill="none" fill-rule="evenodd">
        <path fill="#FF5722" fill-rule="nonzero" d="M22.167 9.583l-.084-.75-6.583-1.25-2.833-5.25-.25-.333h-.75l-3 5.583L2.583 8.75l-.416.083-.167.75 4.417 4.584-.917 6.25v.333l.583.5 6-3 5.584 2.833.416.167.584-.5-.917-6.583 4.417-4.584zm-4.917 9.834l-5.167-2.584-5.166 2.584.833-5.75-3.833-4L9.5 8.583l2.583-4.833 2.584 4.833 5.583 1.084-3.833 4 .833 5.75z"/>
    </g>
</svg>
